<svg width="96" height="96" viewBox="0 0 96 96" fill="none" xmlns="http://www.w3.org/2000/svg">
  <rect width="96" height="96" rx="22" fill="#11071F"/>
  <path d="M20 62C25 39 39 21 58 18C73 16 80 28 73 40C88 43 85 65 68 67C60 81 36 80 31 66C26 67 22 65 20 62Z" fill="url(#a)"/>
  <path d="M39 42L45 54L58 31L54 48L68 45L55 55L61 68L48 59L36 69L41 56L29 49L43 49L39 42Z" fill="#FFF7AD"/>
  <circle cx="34" cy="38" r="4" fill="#FDF4FF"/>
  <circle cx="63" cy="39" r="4" fill="#FDF4FF"/>
  <defs>
    <linearGradient id="a" x1="21" y1="18" x2="80" y2="78" gradientUnits="userSpaceOnUse">
      <stop stop-color="#A78BFA"/>
      <stop offset="0.54" stop-color="#EC4899"/>
      <stop offset="1" stop-color="#F59E0B"/>
    </linearGradient>
  </defs>
</svg>
