<svg xmlns="http://www.w3.org/2000/svg" viewBox="0 0 320 320" role="img" aria-label="Brawl Pass Pro">
  <defs>
    <linearGradient id="brawlProBg" x1="42" y1="25" x2="282" y2="297" gradientUnits="userSpaceOnUse">
      <stop stop-color="#fbbf24"/>
      <stop offset=".56" stop-color="#f59e0b"/>
      <stop offset="1" stop-color="#2a1202"/>
    </linearGradient>
  </defs>
  <rect width="320" height="320" rx="70" fill="#050505"/>
  <rect x="50" y="58" width="220" height="160" rx="28" fill="url(#brawlProBg)"/>
  <path d="M160 84c45 0 82 31 82 70s-37 70-82 70-82-31-82-70 37-70 82-70Z" fill="#171006"/>
  <circle cx="132" cy="149" r="13" fill="#fef3c7"/>
  <circle cx="188" cy="149" r="13" fill="#fef3c7"/>
  <path d="M140 183h40v19h-40z" fill="#fef3c7"/>
  <path d="M229 63l12 28 31 3-23 20 7 30-27-16-27 16 7-30-23-20 31-3 12-28Z" fill="#ffffff"/>
  <text x="160" y="267" text-anchor="middle" font-family="Arial, sans-serif" font-size="29" font-weight="900" fill="#ffffff">BRAWL PRO</text>
</svg>
