<svg xmlns="http://www.w3.org/2000/svg" viewBox="0 0 320 320" role="img" aria-label="Carte PSN">
  <defs>
    <linearGradient id="psnBg" x1="40" y1="30" x2="290" y2="290" gradientUnits="userSpaceOnUse">
      <stop stop-color="#2563eb"/>
      <stop offset=".52" stop-color="#0f3fa8"/>
      <stop offset="1" stop-color="#04142d"/>
    </linearGradient>
  </defs>
  <rect width="320" height="320" rx="70" fill="#050505"/>
  <rect x="38" y="58" width="244" height="164" rx="28" fill="url(#psnBg)"/>
  <path d="M91 161c25 9 65 5 102-8 29-10 45-9 61 2-22 4-41 11-60 19-43 16-78 18-103 7-13-6-13-15 0-20Z" fill="#fff" opacity=".95"/>
  <path d="M128 83c22 5 38 13 38 35v63l-26 7v-78c0-8-4-15-12-17V83Z" fill="#fff"/>
  <path d="M174 109c29 10 43 22 43 39 0 19-18 31-46 31v-21c13 0 20-4 20-11 0-8-7-13-17-17v-21Z" fill="#fff"/>
  <text x="160" y="267" text-anchor="middle" font-family="Arial, sans-serif" font-size="31" font-weight="900" fill="#ffffff">PLAYSTATION</text>
</svg>
